<svg width="1075" height="458" viewBox="0 0 1075 458" fill="none" xmlns="http://www.w3.org/2000/svg">
<path d="M955.5 189C1008.86 189 1054 149.911 1054 99.5C1054 49.0888 1008.86 10 955.5 10C902.136 10 857 49.0888 857 99.5C857 149.911 902.136 189 955.5 189Z" stroke="#53B0FA" stroke-width="20"/>
<path d="M966.5 204C1019.86 204 1065 164.911 1065 114.5C1065 64.0888 1019.86 25 966.5 25C913.136 25 868 64.0888 868 114.5C868 164.911 913.136 204 966.5 204Z" stroke="#53B0FA" stroke-opacity="0.3" stroke-width="20"/>
<path d="M118.5 430C171.864 430 217 390.911 217 340.5C217 290.089 171.864 251 118.5 251C65.1357 251 20 290.089 20 340.5C20 390.911 65.1357 430 118.5 430Z" stroke="#53B0FA" stroke-width="20"/>
<path d="M108.5 448C161.864 448 207 408.911 207 358.5C207 308.089 161.864 269 108.5 269C55.1357 269 10 308.089 10 358.5C10 408.911 55.1357 448 108.5 448Z" stroke="#53B0FA" stroke-opacity="0.3" stroke-width="20"/>
</svg>
