<svg width="1920" height="607" viewBox="0 0 1920 607" fill="none" xmlns="http://www.w3.org/2000/svg">
<g clipPath="url(#clip0_167_10)">
<path d="M1954.8 579.994C1958.94 579.826 1962.16 576.335 1961.99 572.197C1961.83 568.058 1958.34 564.839 1954.2 565.006L1954.8 579.994ZM1237.55 324.561C1233.44 325.087 1230.53 328.844 1231.06 332.952L1239.63 399.906C1240.16 404.015 1243.92 406.919 1248.02 406.393C1252.13 405.867 1255.04 402.11 1254.51 398.001L1246.89 338.487L1306.41 330.867C1310.51 330.341 1313.42 326.584 1312.89 322.476C1312.37 318.367 1308.61 315.463 1304.5 315.989L1237.55 324.561ZM1954.2 565.006C1770.43 572.443 1486.04 513.87 1243.09 326.066L1233.91 337.934C1479.96 528.13 1767.91 587.557 1954.8 579.994L1954.2 565.006Z" fill="white" fillOpacity="0.4"/>
<path d="M-39.0654 219.476C-42.1201 222.273 -42.3285 227.018 -39.531 230.072C-36.7335 233.127 -31.9893 233.335 -28.9346 230.538L-39.0654 219.476ZM649.292 145.239C653.014 143.421 654.557 138.93 652.739 135.208L623.112 74.5576C621.294 70.8358 616.803 69.2924 613.082 71.1105C609.36 72.9285 607.816 77.4195 609.634 81.1413L635.969 135.053L582.057 161.388C578.336 163.206 576.792 167.697 578.61 171.419C580.428 175.141 584.919 176.684 588.641 174.866L649.292 145.239ZM-18.1373 221.42C-14.877 218.865 -14.3052 214.151 -16.8601 210.891C-19.415 207.63 -24.1292 207.059 -27.3895 209.613L-18.1373 221.42ZM-2.47374 192.323C-5.99197 194.509 -7.07181 199.134 -4.88563 202.652C-2.69946 206.17 1.92488 207.25 5.4431 205.064L-2.47374 192.323ZM30.6883 190.743C34.3626 188.831 35.791 184.302 33.8787 180.628C31.9664 176.954 27.4376 175.525 23.7633 177.438L30.6883 190.743ZM50.6815 164.448C46.9018 166.142 45.2114 170.58 46.9058 174.36C48.6003 178.139 53.038 179.83 56.8177 178.135L50.6815 164.448ZM83.7464 166.858C87.6036 165.349 89.5067 160.998 87.997 157.141C86.4873 153.283 82.1366 151.38 78.2793 152.89L83.7464 166.858ZM106.294 142.61C102.377 143.957 100.293 148.224 101.64 152.141C102.987 156.058 107.255 158.141 111.172 156.794L106.294 142.61ZM139.052 147.798C143.017 146.6 145.259 142.414 144.061 138.449C142.862 134.484 138.676 132.241 134.711 133.44L139.052 147.798ZM163.339 125.329C159.335 126.39 156.949 130.496 158.01 134.5C159.07 138.504 163.176 140.89 167.18 139.829L163.339 125.329ZM195.634 132.794C199.67 131.865 202.19 127.84 201.261 123.803C200.332 119.766 196.307 117.247 192.27 118.176L195.634 132.794ZM221.424 111.954C217.36 112.754 214.715 116.698 215.515 120.762C216.316 124.826 220.26 127.472 224.324 126.671L221.424 111.954ZM253.13 121.456C257.216 120.78 259.982 116.92 259.307 112.833C258.632 108.747 254.771 105.981 250.685 106.656L253.13 121.456ZM280.117 102.254C276.012 102.804 273.13 106.578 273.68 110.684C274.23 114.789 278.004 117.671 282.11 117.121L280.117 102.254ZM311.222 113.67C315.343 113.246 318.339 109.562 317.914 105.441C317.489 101.321 313.805 98.3249 309.685 98.7494L311.222 113.67ZM339.355 96.1536C335.223 96.4507 332.115 100.041 332.412 104.172C332.709 108.304 336.299 111.412 340.43 111.115L339.355 96.1536ZM369.691 109.471C373.83 109.304 377.049 105.814 376.882 101.675C376.715 97.5361 373.225 94.3164 369.086 94.4834L369.691 109.471ZM398.848 93.7609C394.706 93.7942 391.375 97.1791 391.408 101.321C391.442 105.463 394.826 108.794 398.968 108.76L398.848 93.7609ZM428.252 109.01C432.393 109.114 435.835 105.842 435.939 101.702C436.044 97.5608 432.772 94.1192 428.631 94.0145L428.252 109.01ZM458.402 95.2798C454.267 95.0318 450.714 98.1826 450.466 102.317C450.218 106.452 453.369 110.005 457.504 110.253L458.402 95.2798ZM486.683 112.529C490.806 112.926 494.471 109.905 494.868 105.782C495.265 101.659 492.244 97.9949 488.121 97.5977L486.683 112.529ZM517.747 101.014C513.642 100.461 509.866 103.341 509.313 107.446C508.76 111.551 511.639 115.327 515.744 115.88L517.747 101.014ZM544.637 120.353C548.717 121.069 552.605 118.342 553.32 114.262C554.036 110.183 551.309 106.295 547.229 105.579L544.637 120.353ZM576.517 111.347C572.471 110.461 568.473 113.023 567.586 117.069C566.7 121.115 569.262 125.114 573.308 126L576.517 111.347ZM601.693 132.872C605.696 133.937 609.804 131.555 610.868 127.552C611.932 123.548 609.55 119.44 605.547 118.376L601.693 132.872ZM634.244 126.723C630.295 125.473 626.08 127.66 624.83 131.609C623.579 135.558 625.767 139.773 629.716 141.023L634.244 126.723ZM-28.9346 230.538C-25.6288 227.51 -22.0269 224.468 -18.1373 221.42L-27.3895 209.613C-31.5525 212.876 -35.4505 216.165 -39.0654 219.476L-28.9346 230.538ZM5.4431 205.064C13.2191 200.232 21.6506 195.447 30.6883 190.743L23.7633 177.438C14.4225 182.299 5.65698 187.271 -2.47374 192.323L5.4431 205.064ZM56.8177 178.135C65.408 174.284 74.3952 170.518 83.7464 166.858L78.2793 152.89C68.7146 156.634 59.5037 160.493 50.6815 164.448L56.8177 178.135ZM111.172 156.794C120.205 153.688 129.507 150.684 139.052 147.798L134.711 133.44C124.99 136.379 115.509 139.44 106.294 142.61L111.172 156.794ZM167.18 139.829C176.482 137.365 185.973 135.016 195.634 132.794L192.27 118.176C182.451 120.435 172.801 122.823 163.339 125.329L167.18 139.829ZM224.324 126.671C233.797 124.804 243.405 123.062 253.13 121.456L250.685 106.656C240.807 108.288 231.048 110.057 221.424 111.954L224.324 126.671ZM282.11 117.121C291.725 115.832 301.435 114.679 311.222 113.67L309.685 98.7494C299.744 99.7737 289.883 100.945 280.117 102.254L282.11 117.121ZM340.43 111.115C350.129 110.417 359.888 109.867 369.691 109.471L369.086 94.4834C359.123 94.8854 349.208 95.445 339.355 96.1536L340.43 111.115ZM398.968 108.76C408.705 108.682 418.471 108.762 428.252 109.01L428.631 94.0145C418.68 93.7628 408.748 93.6811 398.848 93.7609L398.968 108.76ZM457.504 110.253C467.234 110.836 476.965 111.592 486.683 112.529L488.121 97.5977C478.219 96.6438 468.308 95.8739 458.402 95.2798L457.504 110.253ZM515.744 115.88C525.406 117.181 535.042 118.67 544.637 120.353L547.229 105.579C537.433 103.86 527.601 102.341 517.747 101.014L515.744 115.88ZM573.308 126C582.828 128.085 592.294 130.373 601.693 132.872L605.547 118.376C595.929 115.819 586.247 113.478 576.517 111.347L573.308 126ZM629.716 141.023C634.352 142.491 638.968 144.014 643.563 145.593L648.437 131.407C643.727 129.788 638.995 128.227 634.244 126.723L629.716 141.023Z" fill="white" fillOpacity="0.4"/>
</g>
<defs>
<clipPath id="clip0_167_10">
<rect width="1920" height="607" fill="white"/>
</clipPath>
</defs>
</svg>
