<svg width="1920" height="1024" viewBox="0 0 1920 1024" fill="none" xmlns="http://www.w3.org/2000/svg">
<g clipPath="url(#clip0_125_28)">
<path d="M2041 126.5C1816.5 55.8333 1257.3 60.7 816.5 645.5" stroke="white" strokeOpacity="0.15" strokeWidth="16" strokeLinecap="round"/>
<path d="M2072.5 193.963C1848 123.297 1288.8 128.163 848 712.963" stroke="white" strokeOpacity="0.15" strokeWidth="16" strokeLinecap="round" strokeDasharray="32 32"/>
<path d="M516 1092C595.667 1028 725.9 858.2 609.5 691" stroke="white" strokeOpacity="0.15" strokeWidth="16" strokeLinecap="round"/>
<path d="M848.5 1103C861.333 875.5 1042.7 430.5 1665.5 470.5" stroke="white" strokeOpacity="0.15" strokeWidth="16" strokeLinecap="round"/>
<path d="M1358.5 -82.5C1067.83 84.5 425.5 362.9 181.5 140.5" stroke="white" strokeOpacity="0.15" strokeWidth="16" strokeLinecap="round"/>
<path d="M2009.5 495.5C1998 498 1726.5 961.5 1171.5 757" stroke="white" strokeOpacity="0.15" strokeWidth="16" strokeLinecap="round" strokeDasharray="32 32"/>
<path d="M2041 567C2029.07 569.408 1747.53 1015.78 1172 818.839" stroke="white" strokeOpacity="0.15" strokeWidth="16" strokeLinecap="round"/>
<path d="M-23 171C66 327 369.5 587.4 871.5 381" stroke="white" strokeOpacity="0.15" strokeWidth="16" strokeLinecap="round" strokeDasharray="32 32"/>
<path d="M-28 512.557C108.5 505.724 395.4 558.957 451 826.557" stroke="white" strokeOpacity="0.15" strokeWidth="16" strokeLinecap="round"/>
<path d="M-102 577.5C39.6294 571.374 345.311 609.097 403 849" stroke="white" strokeOpacity="0.15" strokeWidth="16" strokeLinecap="round" strokeDasharray="32 32"/>
</g>
<defs>
<clipPath id="clip0_125_28">
<rect width="1920" height="1024" fill="white"/>
</clipPath>
</defs>
</svg>
